<svg xmlns="http://www.w3.org/2000/svg" width="36" height="36" viewBox="0 0 36 36" fill="none">
    <path d="M36 18C36 27.9411 27.9411 36 18 36C8.05887 36 0 27.9411 0 18C0 8.05887 8.05887 0 18 0C27.9411 0 36 8.05887 36 18Z" fill="#1B98DF"/>
    <path d="M27.803 3.27644C25.082 1.49087 21.9195 0.492577 18.6659 0.392136C15.4124 0.291695 12.1947 1.09303 9.36942 2.70737C6.54412 4.32172 4.22147 6.68605 2.65875 9.53847C1.09603 12.3909 0.354247 15.62 0.515567 18.8682C0.676888 22.1164 1.73502 25.2568 3.57274 27.9416C5.41046 30.6264 7.95604 32.7507 10.9275 34.0793C13.8989 35.4078 17.1803 35.8887 20.408 35.4688C23.6357 35.0488 26.6838 33.7443 29.2147 31.6998L18.1262 18L27.803 3.27644Z" fill="#0F5379"/>
    <path d="M27 18C27 22.9706 22.9706 27 18 27C13.0294 27 9 22.9706 9 18C9 13.0294 13.0294 9 18 9C22.9706 9 27 13.0294 27 18Z" fill="#D9D9D9"/>
</svg>